<svg width="145" height="55" viewBox="0 0 145 55" fill="none" xmlns="http://www.w3.org/2000/svg">
<path d="M49.7283 35.0818C50.544 34.303 50.9524 33.3559 50.9524 32.205V31.5282L46.5335 31.866C44.7998 32.0011 43.9496 32.7455 43.9496 34.1335C43.9496 34.8104 44.1878 35.3177 44.6295 35.6899C45.0713 36.0621 45.7179 36.2648 46.5335 36.2648C47.8255 36.2648 48.8793 35.8582 49.7295 35.0806L49.7283 35.0818Z" fill="#F0EBFE"/>
<path d="M87.1582 35.0818C87.9739 34.303 88.3823 33.3559 88.3823 32.205V31.5282L83.9634 31.866C82.2297 32.0011 81.3795 32.7455 81.3795 34.1335C81.3795 34.8104 81.6177 35.3177 82.0594 35.6899C82.5012 36.0621 83.1478 36.2648 83.9634 36.2648C85.2554 36.2648 86.3092 35.8582 87.1594 35.0806L87.1582 35.0818Z" fill="#F0EBFE"/>
<path fill-rule="evenodd" clip-rule="evenodd" d="M72.1512 54.292C111.999 54.292 144.302 42.1383 144.302 27.146C144.302 12.1537 111.999 0 72.1512 0C32.3032 0 0 12.1537 0 27.146C0 42.1383 32.3032 54.292 72.1512 54.292ZM71.0771 18.838C71.5867 19.3121 72.1988 19.5492 72.9811 19.5492C73.7634 19.5492 74.3754 19.3121 74.8851 18.838C75.3947 18.397 75.6329 17.7878 75.6329 17.0777C75.6329 16.3677 75.3947 15.7916 74.8851 15.2843C74.3754 14.8102 73.7289 14.5731 72.9811 14.5731C72.2333 14.5731 71.6212 14.8102 71.1116 15.2843C70.6008 15.7916 70.3293 16.3665 70.3293 17.0777C70.3293 17.7889 70.5674 18.3982 71.0771 18.838ZM70.8056 22.0538V39.1772H75.1566V22.0538H70.8056ZM41.2299 38.2289C40.1416 37.2474 39.5986 35.9613 39.5986 34.3706C39.5986 32.7799 40.1082 31.6289 41.1621 30.7162C42.1813 29.8023 43.6781 29.295 45.6155 29.1255L49.6271 28.8552C50.4773 28.7877 50.9191 28.3135 50.9191 27.4672C50.9191 26.6209 50.6476 26.0116 50.0689 25.5718C49.4914 25.1653 48.6745 24.9626 47.6897 24.9626C45.5821 24.9626 44.3926 25.8421 44.1544 27.5679H39.9725C40.1761 25.6394 40.9239 24.1162 42.2504 23.0672C43.5757 22.0182 45.3785 21.5109 47.7243 21.5109C50.0701 21.5109 51.9395 22.0857 53.266 23.2367C54.558 24.3877 55.2034 26.1135 55.2034 28.3811V35.5216H56.5977V39.176H54.864C52.8243 39.176 51.7359 38.1601 51.6002 36.164C50.5464 38.5323 48.5745 39.7177 45.6512 39.7177C43.7817 39.7177 42.3195 39.2103 41.2323 38.2289H41.2299ZM58.6695 26.385C58.6695 24.9969 59.0433 23.9147 59.8257 23.1703C60.5735 22.4259 61.6618 22.0538 63.1229 22.0538H68.6979V25.7081H63.0205V39.1771H58.6695V26.385ZM78.6586 38.2289C77.5703 37.2474 77.0273 35.9613 77.0273 34.3706C77.0273 32.7799 77.537 31.6289 78.5908 30.7162C79.6101 29.8023 81.1068 29.295 83.0442 29.1255L87.0558 28.8552C87.906 28.7877 88.3478 28.3135 88.3478 27.4672C88.3478 26.6209 88.0763 26.0116 87.4976 25.5718C86.9201 25.1653 86.1032 24.9626 85.1185 24.9626C83.0108 24.9626 81.8213 25.8421 81.5831 27.5679H77.4012C77.6048 25.6394 78.3526 24.1162 79.6791 23.0672C81.0044 22.0182 82.8072 21.5109 85.153 21.5109C87.4988 21.5109 89.3683 22.0857 90.6947 23.2367C91.9867 24.3877 92.6321 26.1135 92.6321 28.3811V35.5216H94.0265V39.176H92.2927C90.253 39.176 89.1646 38.1601 89.0289 36.164C87.9751 38.5323 86.0032 39.7177 83.0799 39.7177C81.2104 39.7177 79.7482 39.2103 78.661 38.2289H78.6586ZM104.666 25.2672C106.773 25.2672 107.827 26.5533 107.827 29.1255L107.828 29.1278V39.1783H112.179V28.3147C112.179 26.1835 111.602 24.5252 110.48 23.3066C109.324 22.1225 107.726 21.5132 105.721 21.5132C103.104 21.5132 101.267 22.5279 100.146 24.5584V22.0537H96.202V39.176H100.553V30.6474C100.553 28.854 100.927 27.5004 101.675 26.5865C102.388 25.707 103.408 25.2672 104.666 25.2672ZM122.615 39.1771C120.61 39.1771 119.045 38.6354 117.958 37.5864C116.836 36.5374 116.292 35.0818 116.292 33.1876V25.7081H113.164V22.0537H115.169C116.087 22.0537 116.564 21.614 116.564 20.7001V16.8418H120.541V22.0537H124.144V25.7081H120.642V34.5069C120.642 35.1837 120.981 35.5215 121.696 35.5215H124.586V39.1759H122.614L122.615 39.1771ZM19.7166 15.487L27.8756 37.5224H27.8768C28.365 38.8417 29.6284 39.7189 31.0406 39.7189C32.4504 39.7189 33.7114 38.8465 34.202 37.5307L42.4265 15.487H37.5647L31.0537 33.8574L24.5093 15.487H19.7166Z" fill="#F0EBFE"/>
</svg>
