<svg width="1312" height="317" viewBox="0 0 1312 317" fill="none" xmlns="http://www.w3.org/2000/svg">
<path d="M269.147 297.674C255.531 285.364 248.738 269.234 248.738 249.282C248.738 229.331 255.114 214.895 268.298 203.448C281.05 191.986 299.776 185.623 324.014 183.497L374.203 180.107C384.839 179.26 390.366 173.313 390.366 162.698C390.366 152.083 386.97 144.441 379.73 138.926C372.505 133.827 362.285 131.284 349.965 131.284C323.597 131.284 308.715 142.316 305.735 163.962H253.416C255.963 139.773 265.319 120.669 281.914 107.512C298.495 94.3552 321.049 87.9922 350.397 87.9922C379.745 87.9922 403.133 95.2026 419.729 109.638C435.892 124.074 443.967 145.72 443.967 174.16V263.718H461.411V309.552H439.721C414.202 309.552 400.586 296.811 398.888 271.776C385.703 301.48 361.034 316.346 324.461 316.346C301.072 316.346 282.778 309.983 269.177 297.674H269.147ZM375.469 258.202C385.674 248.435 390.783 236.556 390.783 222.121V213.632L335.5 217.869C313.809 219.564 303.173 228.9 303.173 246.309C303.173 254.798 306.152 261.161 311.679 265.829C317.206 270.497 325.295 273.039 335.5 273.039C351.663 273.039 364.847 267.94 375.484 258.188L375.469 258.202Z" fill="#FAFAFA"/>
<path d="M487.332 149.124C487.332 131.715 492.01 118.142 501.797 108.805C511.153 99.469 524.769 94.8008 543.048 94.8008H612.797V140.635H541.767V309.567H487.332V149.124Z" fill="#FAFAFA"/>
<path d="M666.383 63.3875C656.596 63.3875 648.939 60.4141 642.562 54.4674C636.186 48.9518 633.207 41.3102 633.207 32.3901C633.207 23.4701 636.604 16.2596 642.995 9.89665C649.371 3.94993 657.028 0.976562 666.383 0.976562C675.739 0.976562 683.828 3.94993 690.204 9.89665C696.58 16.2596 699.559 23.4849 699.559 32.3901C699.559 41.2954 696.58 48.9369 690.204 54.4674C683.828 60.4141 676.171 63.3875 666.383 63.3875ZM639.166 309.567V94.801H693.6V309.567H639.166Z" fill="#FAFAFA"/>
<path d="M737.413 297.674C723.797 285.364 717.004 269.234 717.004 249.282C717.004 229.331 723.38 214.895 736.564 203.448C749.316 191.986 768.042 185.623 792.28 183.497L842.468 180.107C853.105 179.26 858.632 173.313 858.632 162.698C858.632 152.083 855.235 144.441 847.995 138.926C840.77 133.827 830.551 131.284 818.231 131.284C791.863 131.284 776.98 142.316 774.001 163.962H721.682C724.229 139.773 733.585 120.669 750.18 107.512C766.761 94.3552 789.315 87.9922 818.663 87.9922C848.01 87.9922 871.399 95.2026 887.994 109.638C904.158 124.074 912.232 145.72 912.232 174.16V263.718H929.677V309.552H907.987C882.468 309.552 868.852 296.811 867.153 271.776C853.969 301.48 829.299 316.346 792.727 316.346C769.338 316.346 751.044 309.983 737.443 297.674H737.413ZM843.75 258.202C853.954 248.435 859.064 236.556 859.064 222.121V213.632L803.78 217.869C782.09 219.564 771.453 228.9 771.453 246.309C771.453 254.798 774.433 261.161 779.96 265.829C785.487 270.497 793.576 273.039 803.78 273.039C819.944 273.039 833.128 267.94 843.765 258.188L843.75 258.202Z" fill="#FAFAFA"/>
<path d="M1102.34 183.494C1102.34 151.233 1089.15 135.103 1062.78 135.103C1047.05 135.103 1034.29 140.618 1025.36 151.65C1016.01 163.112 1011.33 180.09 1011.33 202.583V309.55H956.895V94.7988H1006.23V126.212C1020.27 100.746 1043.24 88.0195 1075.98 88.0195C1101.07 88.0195 1121.06 95.6611 1135.53 110.513C1149.56 125.796 1156.79 146.595 1156.79 173.325V309.58H1102.35V183.524L1102.34 183.494Z" fill="#FAFAFA"/>
<path d="M1287.34 309.565C1262.26 309.565 1242.68 302.771 1229.08 289.614C1215.05 276.457 1208.24 258.2 1208.24 234.443V140.633H1169.11V94.7991H1194.19C1205.68 94.7991 1211.64 89.2835 1211.64 77.8212V29.4297H1261.39V94.7991H1306.47V140.633H1262.66V250.99C1262.66 259.479 1266.91 263.716 1275.84 263.716H1312V309.55H1287.33L1287.34 309.565Z" fill="#FAFAFA"/>
<path d="M102.076 288.812L0 12.4375H59.9614L141.837 242.843L223.295 12.4375H284.12L181.225 288.916C175.087 305.418 159.311 316.36 141.673 316.36C124.005 316.36 108.199 305.358 102.091 288.812H102.076Z" fill="#FAFAFA"/>
</svg>
