<svg xmlns="http://www.w3.org/2000/svg" width="70" height="18" viewBox="0 0 70 18" fill="none">
<path d="M68.0886 17.0289C66.7711 17.0289 65.743 16.6712 65.0287 15.9785C64.2917 15.2859 63.9342 14.3248 63.9342 13.0741V8.13553H61.8789V5.72259H63.1964C63.7996 5.72259 64.1126 5.43223 64.1126 4.8288V2.28125H66.7257V5.72259H69.0932V8.13553H66.7922V13.9452C66.7922 14.3921 67.0152 14.6151 67.4846 14.6151H69.3834V17.0281H68.0878L68.0886 17.0289Z" fill="black"/>
<path d="M58.3727 10.3895C58.3727 8.69114 57.6803 7.84196 56.2955 7.84196C55.4693 7.84196 54.7988 8.13232 54.3302 8.71305C53.8388 9.31648 53.5932 10.2103 53.5932 11.3944V17.0257H50.7344V5.72017H53.3256V7.37393C54.0626 6.03324 55.269 5.36328 56.9887 5.36328C58.3062 5.36328 59.3561 5.76557 60.1158 6.54744C60.8528 7.35201 61.2323 8.44695 61.2323 9.85417V17.0272H58.3735V10.3911L58.3727 10.3895Z" fill="black"/>
<path d="M39.2086 16.4019C38.4935 15.7538 38.1367 14.9047 38.1367 13.8543C38.1367 12.804 38.4716 12.044 39.164 11.4414C39.8337 10.838 40.8171 10.503 42.0901 10.3911L44.7259 10.2126C45.2845 10.168 45.5747 9.85495 45.5747 9.29613C45.5747 8.73732 45.3964 8.33503 45.0161 8.04467C44.6367 7.77621 44.1 7.64238 43.4529 7.64238C42.0681 7.64238 41.2866 8.22311 41.1301 9.36266H38.3824C38.5162 8.08928 39.0075 7.08356 39.8791 6.39091C40.7498 5.69826 41.9344 5.36328 43.4756 5.36328C45.0169 5.36328 46.2452 5.74287 47.1168 6.50283C47.9657 7.26279 48.3897 8.40234 48.3897 9.89956V14.6143H49.3059V17.0272H48.1668C46.8265 17.0272 46.1115 16.3565 46.0223 15.0385C45.3299 16.6022 44.0343 17.3849 42.1135 17.3849C40.8852 17.3849 39.9244 17.0499 39.2101 16.4019H39.2086ZM44.7932 14.3239C45.3291 13.8097 45.5974 13.1844 45.5974 12.4244V11.9775L42.694 12.2006C41.5549 12.2898 40.9963 12.7813 40.9963 13.6978C40.9963 14.1447 41.1528 14.4797 41.443 14.7254C41.7333 14.9712 42.1581 15.105 42.694 15.105C43.5429 15.105 44.2353 14.8366 44.7939 14.3231L44.7932 14.3239Z" fill="black"/>
<path d="M35.4767 4.06685C34.9627 4.06685 34.5606 3.91031 34.2257 3.59725C33.8908 3.30689 33.7344 2.9046 33.7344 2.43501C33.7344 1.96541 33.9128 1.58582 34.2484 1.25084C34.5833 0.937781 34.9854 0.78125 35.4767 0.78125C35.9681 0.78125 36.3929 0.937781 36.7277 1.25084C37.0626 1.58582 37.2191 1.96619 37.2191 2.43501C37.2191 2.90382 37.0626 3.3061 36.7277 3.59725C36.3929 3.91031 35.9907 4.06685 35.4767 4.06685ZM34.0473 17.0269V5.7206H36.9061V17.0269H34.0473Z" fill="black"/>
<path d="M26.0742 8.57858C26.0742 7.66209 26.3199 6.94752 26.8339 6.45601C27.3252 5.9645 28.0403 5.71875 29.0003 5.71875H32.6634V8.13168H28.933V17.025H26.0742V8.57858Z" fill="black"/>
<path d="M14.6148 16.4019C13.8997 15.7538 13.543 14.9047 13.543 13.8543C13.543 12.804 13.8778 12.044 14.5702 11.4414C15.2399 10.838 16.2234 10.503 17.4963 10.3911L20.1321 10.2126C20.6907 10.168 20.981 9.85495 20.981 9.29613C20.981 8.73732 20.8026 8.33503 20.4224 8.04467C20.0429 7.77621 19.5062 7.64238 18.8592 7.64238C17.4744 7.64238 16.6928 8.22311 16.5363 9.36266H13.7886C13.9224 8.08928 14.4138 7.08356 15.2853 6.39091C16.1561 5.69826 17.3406 5.36328 18.8819 5.36328C20.4232 5.36328 21.6515 5.74287 22.5231 6.50283C23.3719 7.26279 23.796 8.40234 23.796 9.89956V14.6143H24.7121V17.0272H23.573C22.2328 17.0272 21.5177 16.3565 21.4285 15.0385C20.7361 16.6022 19.4405 17.3849 17.5198 17.3849C16.2914 17.3849 15.3307 17.0499 14.6164 16.4019H14.6148ZM20.1986 14.3239C20.7345 13.8097 21.0029 13.1844 21.0029 12.4244V11.9775L18.0995 12.2006C16.9604 12.2898 16.4018 12.7813 16.4018 13.6978C16.4018 14.1447 16.5582 14.4797 16.8485 14.7254C17.1388 14.9712 17.5636 15.105 18.0995 15.105C18.9484 15.105 19.6408 14.8366 20.1994 14.3231L20.1986 14.3239Z" fill="black"/>
<path d="M5.84129 15.9363L0.480469 1.38672H3.62952L7.92945 13.5163L12.2075 1.38672H15.4019L9.99804 15.9418C9.6757 16.8105 8.84717 17.3866 7.92084 17.3866C6.99295 17.3866 6.16285 16.8074 5.84207 15.9363H5.84129Z" fill="black"/>
</svg>
