<svg xmlns="http://www.w3.org/2000/svg" width="24" height="24" viewBox="0 0 24 24" fill="none">
<g id="CaretRight">
<path id="Vector" d="M11.469 17.031L3.96896 9.53104C3.89927 9.46136 3.844 9.37863 3.80629 9.28759C3.76858 9.19654 3.74916 9.09896 3.74916 9.00042C3.74916 8.90187 3.76858 8.80429 3.80629 8.71324C3.844 8.6222 3.89927 8.53947 3.96896 8.46979C4.03864 8.40011 4.12136 8.34483 4.21241 8.30712C4.30345 8.26941 4.40104 8.25 4.49958 8.25C4.59813 8.25 4.69571 8.26941 4.78675 8.30712C4.8778 8.34483 4.96052 8.40011 5.03021 8.46979L11.9996 15.4401L18.969 8.46979C19.1097 8.32906 19.3006 8.25 19.4996 8.25C19.6986 8.25 19.8895 8.32906 20.0302 8.46979C20.1709 8.61052 20.25 8.80139 20.25 9.00042C20.25 9.19944 20.1709 9.39031 20.0302 9.53104L12.5302 17.031C12.4606 17.1008 12.3778 17.1561 12.2868 17.1938C12.1957 17.2316 12.0981 17.251 11.9996 17.251C11.901 17.251 11.8034 17.2316 11.7124 17.1938C11.6213 17.1561 11.5386 17.1008 11.469 17.031Z" fill="#FAFAFA"/>
</g>
</svg>
