<svg width="29" height="28" viewBox="0 0 29 28" fill="none" xmlns="http://www.w3.org/2000/svg">
<path id="&#226;&#153;&#161;" d="M14.328 27.1394C11.28 24.8834 8.724 22.7954 6.66 20.8754C4.596 18.9554 2.964 16.9994 1.764 15.0074C0.588 13.0154 0 10.9874 0 8.92338C0 7.38738 0.324 6.00738 0.972 4.78338C1.62 3.55938 2.508 2.59938 3.636 1.90337C4.788 1.20737 6.084 0.859375 7.524 0.859375C9.252 0.859375 10.692 1.29138 11.844 2.15538C12.996 3.01938 13.824 3.91938 14.328 4.85537C14.808 3.91938 15.624 3.01938 16.776 2.15538C17.952 1.29138 19.404 0.859375 21.132 0.859375C22.572 0.859375 23.856 1.20737 24.984 1.90337C26.136 2.59938 27.036 3.55938 27.684 4.78338C28.332 6.00738 28.656 7.38738 28.656 8.92338C28.656 10.9874 28.056 13.0154 26.856 15.0074C25.68 16.9994 24.06 18.9674 21.996 20.9114C19.932 22.8314 17.376 24.9074 14.328 27.1394ZM14.76 23.6474C17.304 21.6314 19.356 19.8794 20.916 18.3914C22.476 16.9034 23.7 15.3794 24.588 13.8194C25.476 12.2594 25.92 10.6154 25.92 8.88737C25.92 7.25537 25.488 5.95938 24.624 4.99938C23.784 4.03937 22.644 3.55937 21.204 3.55937C20.196 3.55937 19.272 3.79938 18.432 4.27938C17.616 4.73538 16.884 5.37138 16.236 6.18738C15.588 7.00337 14.952 8.03537 14.328 9.28337C13.704 8.03537 13.068 7.00337 12.42 6.18738C11.772 5.37138 11.028 4.73538 10.188 4.27938C9.372 3.79938 8.46 3.55937 7.452 3.55937C6.492 3.55937 5.652 3.77537 4.932 4.20738C4.236 4.63938 3.696 5.26337 3.312 6.07937C2.928 6.89538 2.736 7.83138 2.736 8.88737C2.736 10.6394 3.192 12.3194 4.104 13.9274C5.04 15.5114 6.3 17.0594 7.884 18.5714C9.492 20.0594 11.64 21.8594 14.328 23.9714L14.76 23.6474Z" fill="#2D2D2D"/>
</svg>
